<?xml version="1.0" encoding="iso-8859-1"?>
<!-- Generator: Adobe Illustrator 16.0.4, SVG Export Plug-In . SVG Version: 6.00 Build 0)  -->
<!DOCTYPE svg PUBLIC "-//W3C//DTD SVG 1.1//EN" "http://www.w3.org/Graphics/SVG/1.1/DTD/svg11.dtd">
<svg version="1.1" id="Layer_1" xmlns="http://www.w3.org/2000/svg" xmlns:xlink="http://www.w3.org/1999/xlink" x="0px" y="0px"
	 width="162.668px" height="53.197px" viewBox="0 0 162.668 53.197" style="enable-background:new 0 0 162.668 53.197;"
	 xml:space="preserve">
<g>
	<defs>
		<rect id="SVGID_1_" x="-46.08" y="-640.806" width="612" height="792"/>
	</defs>
	<clipPath id="SVGID_2_">
		<use xlink:href="#SVGID_1_"  style="display:none;overflow:visible;"/>
	</clipPath>
	<g style="display:none;clip-path:url(#SVGID_2_);">
		<defs>
			<rect id="SVGID_3_" x="-46.08" y="-640.806" width="612.003" height="791.874"/>
		</defs>
		<clipPath id="SVGID_4_" style="display:inline;">
			<use xlink:href="#SVGID_3_"  style="overflow:visible;"/>
		</clipPath>
		<g style="display:inline;clip-path:url(#SVGID_4_);">
			<defs>
				<rect id="SVGID_5_" x="-47.147" y="-641.871" width="613.942" height="793.901"/>
			</defs>
			<clipPath id="SVGID_6_">
				<use xlink:href="#SVGID_5_"  style="overflow:visible;"/>
			</clipPath>
			<g transform="matrix(1 0 0 1 0 6.103516e-05)" style="clip-path:url(#SVGID_6_);">
				
					<image style="overflow:visible;" width="853" height="1103" xlink:href="16A5AFB956C664BF.jpg"  transform="matrix(0.7197 0 0 0.7198 -47.147 -641.8706)">
				</image>
			</g>
		</g>
	</g>
	<g style="display:none;clip-path:url(#SVGID_2_);">
		<defs>
			<rect id="SVGID_7_" x="-46.08" y="-640.806" width="612" height="792"/>
		</defs>
		<clipPath id="SVGID_8_" style="display:inline;">
			<use xlink:href="#SVGID_7_"  style="overflow:visible;"/>
		</clipPath>
		
			<rect x="-53.58" y="-640.806" style="display:inline;clip-path:url(#SVGID_8_);fill:none;stroke:#000000;stroke-width:0.25;" width="629.375" height="791.875"/>
	</g>
	<g style="display:none;clip-path:url(#SVGID_2_);">
		<path style="display:inline;fill:#009FC2;" d="M320.731-313.405c1.331-0.201,2.913-0.352,4.646-0.352
			c3.139,0,5.374,0.729,6.856,2.11c1.507,1.381,2.386,3.34,2.386,6.078c0,2.763-0.854,5.023-2.437,6.58
			c-1.582,1.583-4.194,2.437-7.484,2.437c-1.557,0-2.863-0.076-3.968-0.201V-313.405z M322.916-298.436
			c0.553,0.101,1.356,0.125,2.21,0.125c4.672,0,7.209-2.612,7.209-7.183c0.024-3.994-2.235-6.53-6.857-6.53
			c-1.13,0-1.983,0.101-2.562,0.226V-298.436z"/>
		<path style="display:inline;fill:#009FC2;" d="M338.383-302.379c0.05,2.989,1.959,4.22,4.169,4.22
			c1.582,0,2.537-0.276,3.365-0.628l0.377,1.582c-0.778,0.352-2.109,0.753-4.044,0.753c-3.742,0-5.978-2.461-5.978-6.128
			c0-3.667,2.16-6.556,5.701-6.556c3.969,0,5.023,3.491,5.023,5.727c0,0.452-0.05,0.804-0.075,1.03H338.383z M344.863-303.961
			c0.025-1.407-0.577-3.592-3.064-3.592c-2.235,0-3.215,2.06-3.391,3.592H344.863z"/>
		<path style="display:inline;fill:#009FC2;" d="M349.732-296.703v-10.473h-1.708v-1.683h1.708v-0.653
			c0-3.215,1.884-5.299,5.3-5.299c1.13,0,2.461,0.352,3.089,0.804l-0.628,1.683c-0.527-0.377-1.481-0.703-2.562-0.703
			c-2.336,0-3.015,1.632-3.015,3.566v0.603h7.058v12.156h-2.185v-10.473h-4.873v10.473H349.732z"/>
		<path style="display:inline;fill:#009FC2;" d="M362.412-305.568c0-1.256-0.024-2.286-0.1-3.291h1.959l0.125,2.009h0.051
			c0.603-1.155,2.009-2.286,4.019-2.286c1.683,0,4.295,1.005,4.295,5.174v7.258h-2.211v-7.007c0-1.959-0.729-3.592-2.812-3.592
			c-1.457,0-2.587,1.03-2.964,2.261c-0.101,0.276-0.15,0.653-0.15,1.03v7.309h-2.211V-305.568z"/>
		<path style="display:inline;fill:#009FC2;" d="M378.583-312.274c0.025,0.753-0.527,1.356-1.406,1.356
			c-0.779,0-1.331-0.603-1.331-1.356c0-0.779,0.577-1.381,1.381-1.381C378.056-313.656,378.583-313.053,378.583-312.274z
			 M376.122-296.703v-12.156h2.211v12.156H376.122z"/>
		<path style="display:inline;fill:#009FC2;" d="M381.771-305.568c0-1.256-0.024-2.286-0.1-3.291h1.959l0.125,2.009h0.051
			c0.603-1.155,2.009-2.286,4.019-2.286c1.683,0,4.295,1.005,4.295,5.174v7.258h-2.211v-7.007c0-1.959-0.729-3.592-2.812-3.592
			c-1.457,0-2.587,1.03-2.964,2.261c-0.101,0.276-0.15,0.653-0.15,1.03v7.309h-2.211V-305.568z"/>
		<path style="display:inline;fill:#009FC2;" d="M405.955-308.859c-0.05,0.879-0.101,1.859-0.101,3.34v7.058
			c0,2.788-0.553,4.496-1.732,5.551c-1.181,1.105-2.889,1.457-4.421,1.457c-1.456,0-3.063-0.352-4.044-1.004l0.553-1.683
			c0.804,0.502,2.06,0.954,3.566,0.954c2.261,0,3.918-1.18,3.918-4.245v-1.356h-0.05c-0.678,1.13-1.984,2.034-3.868,2.034
			c-3.014,0-5.174-2.562-5.174-5.927c0-4.119,2.688-6.455,5.476-6.455c2.109,0,3.265,1.105,3.793,2.11h0.05l0.101-1.833H405.955z
			 M403.669-304.062c0-0.377-0.025-0.703-0.126-1.005c-0.401-1.281-1.481-2.335-3.089-2.335c-2.11,0-3.617,1.783-3.617,4.596
			c0,2.386,1.206,4.37,3.592,4.37c1.356,0,2.587-0.854,3.064-2.261c0.125-0.376,0.176-0.804,0.176-1.18V-304.062z"/>
	</g>
	<g style="display:none;clip-path:url(#SVGID_2_);">
	</g>
	<g style="display:none;clip-path:url(#SVGID_2_);">
		<path style="display:inline;fill:#009FC2;" d="M330.954-279.027c-0.126-2.361-0.276-5.199-0.251-7.309h-0.075
			c-0.578,1.984-1.281,4.094-2.136,6.43l-2.988,8.213h-1.658l-2.737-8.062c-0.804-2.386-1.481-4.571-1.959-6.581h-0.05
			c-0.051,2.11-0.176,4.948-0.327,7.485l-0.452,7.258h-2.084l1.18-16.928h2.788l2.889,8.188c0.703,2.084,1.281,3.943,1.708,5.701
			h0.075c0.427-1.708,1.029-3.566,1.783-5.701l3.014-8.188h2.788l1.055,16.928h-2.135L330.954-279.027z"/>
		<path style="display:inline;fill:#009FC2;" d="M347.575-277.771c0,4.496-3.114,6.455-6.053,6.455c-3.29,0-5.827-2.411-5.827-6.254
			c0-4.069,2.663-6.455,6.028-6.455C345.214-284.025,347.575-281.488,347.575-277.771z M337.93-277.646
			c0,2.662,1.532,4.671,3.692,4.671c2.109,0,3.692-1.984,3.692-4.722c0-2.06-1.03-4.672-3.643-4.672
			C339.061-282.368,337.93-279.957,337.93-277.646z"/>
		<path style="display:inline;fill:#009FC2;" d="M350.133-280.458c0-1.256-0.024-2.286-0.1-3.291h1.934l0.101,1.959h0.075
			c0.678-1.155,1.809-2.235,3.817-2.235c1.658,0,2.914,1.005,3.441,2.437h0.05c0.377-0.678,0.854-1.206,1.356-1.583
			c0.729-0.552,1.532-0.854,2.688-0.854c1.607,0,3.993,1.055,3.993,5.274v7.158h-2.16v-6.882c0-2.336-0.854-3.742-2.637-3.742
			c-1.256,0-2.235,0.929-2.612,2.009c-0.101,0.301-0.176,0.703-0.176,1.105v7.51h-2.16v-7.284c0-1.934-0.854-3.34-2.536-3.34
			c-1.382,0-2.387,1.105-2.738,2.21c-0.125,0.327-0.176,0.704-0.176,1.08v7.334h-2.16V-280.458z"/>
		<path style="display:inline;fill:#009FC2;" d="M372.081-277.269c0.05,2.989,1.959,4.22,4.169,4.22
			c1.582,0,2.537-0.276,3.365-0.628l0.377,1.582c-0.778,0.352-2.109,0.753-4.044,0.753c-3.742,0-5.978-2.461-5.978-6.128
			s2.16-6.556,5.701-6.556c3.969,0,5.023,3.491,5.023,5.727c0,0.452-0.05,0.804-0.075,1.03H372.081z M378.56-278.851
			c0.025-1.407-0.577-3.592-3.064-3.592c-2.235,0-3.215,2.06-3.391,3.592H378.56z"/>
		<path style="display:inline;fill:#009FC2;" d="M383.203-280.458c0-1.256-0.024-2.286-0.1-3.291h1.959l0.125,2.009h0.051
			c0.603-1.155,2.009-2.286,4.019-2.286c1.683,0,4.295,1.005,4.295,5.174v7.258h-2.211v-7.007c0-1.959-0.729-3.592-2.812-3.592
			c-1.457,0-2.587,1.03-2.964,2.261c-0.101,0.276-0.15,0.653-0.15,1.03v7.309h-2.211V-280.458z"/>
		<path style="display:inline;fill:#009FC2;" d="M399.576-287.24v3.491h3.164v1.683h-3.164v6.555c0,1.507,0.427,2.361,1.657,2.361
			c0.578,0,1.005-0.075,1.281-0.151l0.101,1.658c-0.428,0.176-1.105,0.301-1.959,0.301c-1.03,0-1.859-0.326-2.387-0.929
			c-0.628-0.653-0.854-1.733-0.854-3.165v-6.63h-1.884v-1.683h1.884v-2.913L399.576-287.24z"/>
		<path style="display:inline;fill:#009FC2;" d="M404.697-273.853c0.653,0.427,1.809,0.879,2.913,0.879
			c1.607,0,2.361-0.804,2.361-1.809c0-1.055-0.628-1.632-2.261-2.235c-2.185-0.779-3.215-1.984-3.215-3.441
			c0-1.959,1.582-3.567,4.194-3.567c1.23,0,2.311,0.352,2.989,0.754l-0.553,1.607c-0.478-0.302-1.356-0.704-2.486-0.704
			c-1.307,0-2.035,0.753-2.035,1.658c0,1.005,0.729,1.457,2.312,2.06c2.109,0.804,3.189,1.858,3.189,3.667
			c0,2.135-1.658,3.642-4.546,3.642c-1.331,0-2.562-0.326-3.416-0.829L404.697-273.853z"/>
	</g>
	<g style="display:none;clip-path:url(#SVGID_2_);">
		<defs>
			<rect id="SVGID_9_" x="-46.08" y="-640.806" width="612" height="792"/>
		</defs>
		<clipPath id="SVGID_10_" style="display:inline;">
			<use xlink:href="#SVGID_9_"  style="overflow:visible;"/>
		</clipPath>
		<defs>
			<filter id="Adobe_OpacityMaskFilter" filterUnits="userSpaceOnUse" x="-43.58" y="-576.379" width="558.72" height="676.801">
				<feColorMatrix  type="matrix" values="1 0 0 0 0  0 1 0 0 0  0 0 1 0 0  0 0 0 1 0"/>
			</filter>
		</defs>
		
			<mask maskUnits="userSpaceOnUse" x="-43.58" y="-576.379" width="558.72" height="676.801" id="SVGID_11_" style="display:inline;">
			<g style="filter:url(#Adobe_OpacityMaskFilter);">
				<g>
					<defs>
						<rect id="SVGID_12_" x="-45.379" y="-578.178" width="563.04" height="681.12"/>
					</defs>
					<clipPath id="SVGID_13_" style="clip-path:url(#SVGID_10_);">
						<use xlink:href="#SVGID_12_"  style="overflow:visible;"/>
					</clipPath>
					<g style="clip-path:url(#SVGID_13_);">
						
							<image style="overflow:visible;" width="1564" height="1892" xlink:href="16A5AFB956C664BD.jpg"  transform="matrix(0.36 0 0 0.36 -45.3794 -578.1782)">
						</image>
					</g>
				</g>
			</g>
		</mask>
		<g style="display:inline;clip-path:url(#SVGID_10_);mask:url(#SVGID_11_);">
			<g>
				<defs>
					<rect id="SVGID_14_" x="-43.58" y="-576.379" width="558.72" height="676.801"/>
				</defs>
				<clipPath id="SVGID_15_">
					<use xlink:href="#SVGID_14_"  style="overflow:visible;"/>
				</clipPath>
				<rect x="-43.58" y="-576.379" style="opacity:0.21;clip-path:url(#SVGID_15_);" width="558.72" height="676.8"/>
			</g>
		</g>
		<path style="display:inline;clip-path:url(#SVGID_10_);fill:#FFFFFF;" d="M464.145-290.374
			c0,56.167-45.551,101.702-101.739,101.702c-56.189,0-101.74-45.534-101.74-101.702c0-56.168,45.551-101.701,101.74-101.701
			C418.594-392.075,464.145-346.542,464.145-290.374 M502.685-577.754h-547.64v665.75h547.64V-577.754z"/>
		<path style="display:inline;clip-path:url(#SVGID_10_);fill:none;stroke:#000000;stroke-width:0.25;" d="M464.145-290.374
			c0,56.167-45.551,101.702-101.739,101.702c-56.189,0-101.74-45.534-101.74-101.702c0-56.168,45.551-101.701,101.74-101.701
			C418.594-392.075,464.145-346.542,464.145-290.374z M502.685-577.754h-547.64v665.75h547.64V-577.754z"/>
	</g>
	<g style="display:none;clip-path:url(#SVGID_2_);">
		<path style="display:inline;fill:#F58025;" d="M-3.663-528.192c0.503-0.084,1.163-0.156,2.003-0.156
			c1.031,0,1.787,0.24,2.267,0.672c0.444,0.384,0.708,0.971,0.708,1.691c0,0.731-0.216,1.307-0.624,1.727
			c-0.552,0.587-1.451,0.888-2.471,0.888c-0.312,0-0.6-0.012-0.839-0.072v3.238h-1.043V-528.192z M-2.619-524.294
			c0.228,0.06,0.516,0.084,0.863,0.084c1.259,0,2.027-0.612,2.027-1.727c0-1.067-0.755-1.583-1.907-1.583
			c-0.456,0-0.804,0.036-0.983,0.084V-524.294z"/>
		<path style="display:inline;fill:#F58025;" d="M3.441-528.18c0.528-0.108,1.283-0.168,2.003-0.168c1.115,0,1.835,0.204,2.338,0.66
			c0.408,0.36,0.636,0.912,0.636,1.535c0,1.067-0.671,1.775-1.523,2.063v0.036c0.624,0.216,0.995,0.792,1.187,1.631
			c0.264,1.127,0.456,1.907,0.624,2.219h-1.08c-0.132-0.228-0.312-0.923-0.54-1.931c-0.24-1.115-0.672-1.535-1.619-1.571H4.485
			v3.502H3.441V-528.18z M4.485-524.498h1.067c1.115,0,1.823-0.612,1.823-1.535c0-1.043-0.755-1.5-1.859-1.511
			c-0.504,0-0.863,0.048-1.031,0.096V-524.498z"/>
		<path style="display:inline;fill:#F58025;" d="M17.525-524.33c0,2.783-1.691,4.258-3.754,4.258c-2.135,0-3.634-1.655-3.634-4.102
			c0-2.567,1.595-4.246,3.754-4.246C16.098-528.419,17.525-526.729,17.525-524.33z M11.253-524.198c0,1.727,0.935,3.274,2.579,3.274
			c1.655,0,2.59-1.523,2.59-3.358c0-1.607-0.839-3.286-2.579-3.286C12.116-527.568,11.253-525.973,11.253-524.198z"/>
		<path style="display:inline;fill:#F58025;" d="M25.758-520.564c-0.468,0.168-1.391,0.444-2.482,0.444
			c-1.223,0-2.231-0.312-3.022-1.067c-0.696-0.672-1.127-1.751-1.127-3.01c0.012-2.411,1.667-4.174,4.378-4.174
			c0.935,0,1.667,0.204,2.015,0.372l-0.252,0.852c-0.432-0.192-0.971-0.348-1.787-0.348c-1.967,0-3.25,1.223-3.25,3.25
			c0,2.051,1.235,3.262,3.118,3.262c0.684,0,1.151-0.096,1.392-0.216v-2.411h-1.644v-0.839h2.663V-520.564z"/>
		<path style="display:inline;fill:#F58025;" d="M28.077-528.18c0.528-0.108,1.283-0.168,2.003-0.168
			c1.115,0,1.835,0.204,2.338,0.66c0.408,0.36,0.636,0.912,0.636,1.535c0,1.067-0.671,1.775-1.523,2.063v0.036
			c0.624,0.216,0.995,0.792,1.187,1.631c0.264,1.127,0.456,1.907,0.624,2.219h-1.08c-0.132-0.228-0.312-0.923-0.54-1.931
			c-0.24-1.115-0.672-1.535-1.619-1.571h-0.983v3.502h-1.043V-528.18z M29.121-524.498h1.067c1.115,0,1.823-0.612,1.823-1.535
			c0-1.043-0.755-1.5-1.859-1.511c-0.504,0-0.863,0.048-1.031,0.096V-524.498z"/>
		<path style="display:inline;fill:#F58025;" d="M39.438-523.994h-3.142v2.915h3.502v0.875h-4.545v-8.083h4.366v0.875h-3.322v2.555
			h3.142V-523.994z"/>
		<path style="display:inline;fill:#F58025;" d="M41.733-521.476c0.468,0.288,1.151,0.528,1.871,0.528
			c1.067,0,1.691-0.563,1.691-1.379c0-0.755-0.432-1.187-1.523-1.607c-1.319-0.468-2.135-1.151-2.135-2.291
			c0-1.259,1.043-2.195,2.614-2.195c0.828,0,1.427,0.192,1.787,0.396l-0.288,0.852c-0.264-0.144-0.803-0.384-1.535-0.384
			c-1.103,0-1.523,0.66-1.523,1.211c0,0.755,0.492,1.127,1.607,1.559c1.367,0.528,2.063,1.188,2.063,2.375
			c0,1.248-0.923,2.327-2.831,2.327c-0.779,0-1.631-0.228-2.062-0.516L41.733-521.476z"/>
		<path style="display:inline;fill:#F58025;" d="M48.369-521.476c0.468,0.288,1.151,0.528,1.871,0.528
			c1.067,0,1.691-0.563,1.691-1.379c0-0.755-0.432-1.187-1.523-1.607c-1.319-0.468-2.135-1.151-2.135-2.291
			c0-1.259,1.043-2.195,2.615-2.195c0.828,0,1.427,0.192,1.787,0.396l-0.288,0.852c-0.264-0.144-0.803-0.384-1.535-0.384
			c-1.103,0-1.523,0.66-1.523,1.211c0,0.755,0.492,1.127,1.607,1.559c1.368,0.528,2.063,1.188,2.063,2.375
			c0,1.248-0.923,2.327-2.831,2.327c-0.779,0-1.631-0.228-2.062-0.516L48.369-521.476z"/>
		<path style="display:inline;fill:#F58025;" d="M58.413-528.18c0.527-0.108,1.283-0.168,2.003-0.168
			c1.115,0,1.835,0.204,2.338,0.66c0.408,0.36,0.636,0.912,0.636,1.535c0,1.067-0.671,1.775-1.523,2.063v0.036
			c0.624,0.216,0.995,0.792,1.187,1.631c0.264,1.127,0.456,1.907,0.624,2.219h-1.08c-0.132-0.228-0.312-0.923-0.54-1.931
			c-0.24-1.115-0.672-1.535-1.619-1.571h-0.983v3.502h-1.043V-528.18z M59.456-524.498h1.067c1.115,0,1.823-0.612,1.823-1.535
			c0-1.043-0.755-1.5-1.859-1.511c-0.504,0-0.863,0.048-1.031,0.096V-524.498z"/>
		<path style="display:inline;fill:#F58025;" d="M69.774-523.994h-3.142v2.915h3.502v0.875h-4.545v-8.083h4.366v0.875h-3.322v2.555
			h3.142V-523.994z"/>
		<path style="display:inline;fill:#F58025;" d="M72.212-528.192c0.503-0.084,1.163-0.156,2.003-0.156
			c1.031,0,1.787,0.24,2.267,0.672c0.444,0.384,0.708,0.971,0.708,1.691c0,0.731-0.216,1.307-0.624,1.727
			c-0.552,0.587-1.451,0.888-2.471,0.888c-0.312,0-0.6-0.012-0.839-0.072v3.238h-1.043V-528.192z M73.256-524.294
			c0.228,0.06,0.516,0.084,0.863,0.084c1.259,0,2.027-0.612,2.027-1.727c0-1.067-0.755-1.583-1.907-1.583
			c-0.456,0-0.804,0.036-0.983,0.084V-524.294z"/>
		<path style="display:inline;fill:#F58025;" d="M86.225-524.33c0,2.783-1.691,4.258-3.754,4.258c-2.135,0-3.634-1.655-3.634-4.102
			c0-2.567,1.595-4.246,3.754-4.246C84.797-528.419,86.225-526.729,86.225-524.33z M79.952-524.198c0,1.727,0.935,3.274,2.579,3.274
			c1.655,0,2.59-1.523,2.59-3.358c0-1.607-0.839-3.286-2.579-3.286C80.815-527.568,79.952-525.973,79.952-524.198z"/>
		<path style="display:inline;fill:#F58025;" d="M88.305-528.18c0.528-0.108,1.283-0.168,2.003-0.168
			c1.115,0,1.835,0.204,2.338,0.66c0.408,0.36,0.636,0.912,0.636,1.535c0,1.067-0.671,1.775-1.523,2.063v0.036
			c0.624,0.216,0.995,0.792,1.187,1.631c0.264,1.127,0.456,1.907,0.624,2.219h-1.08c-0.132-0.228-0.312-0.923-0.54-1.931
			c-0.24-1.115-0.672-1.535-1.619-1.571h-0.983v3.502h-1.043V-528.18z M89.348-524.498h1.067c1.115,0,1.823-0.612,1.823-1.535
			c0-1.043-0.755-1.5-1.859-1.511c-0.504,0-0.863,0.048-1.031,0.096V-524.498z"/>
		<path style="display:inline;fill:#F58025;" d="M96.8-527.4h-2.459v-0.887h5.985v0.887h-2.471v7.196H96.8V-527.4z"/>
		<path style="display:inline;fill:#F58025;" d="M104.84-520.204v-0.647l0.828-0.804c1.991-1.895,2.891-2.902,2.902-4.078
			c0-0.792-0.384-1.523-1.547-1.523c-0.708,0-1.295,0.36-1.655,0.66l-0.336-0.744c0.54-0.456,1.308-0.792,2.207-0.792
			c1.679,0,2.387,1.151,2.387,2.267c0,1.439-1.043,2.603-2.687,4.186l-0.624,0.576v0.024h3.502v0.875H104.84z"/>
		<path style="display:inline;fill:#F58025;" d="M116.897-524.186c0,2.651-0.983,4.114-2.71,4.114c-1.523,0-2.555-1.427-2.579-4.006
			c0-2.614,1.127-4.054,2.71-4.054C115.961-528.132,116.897-526.668,116.897-524.186z M112.664-524.066
			c0,2.027,0.624,3.178,1.583,3.178c1.08,0,1.595-1.259,1.595-3.25c0-1.919-0.492-3.179-1.583-3.179
			C113.335-527.316,112.664-526.189,112.664-524.066z"/>
		<path style="display:inline;fill:#F58025;" d="M120.883-527.017h-0.024l-1.355,0.732l-0.204-0.804l1.703-0.912h0.9v7.796h-1.02
			V-527.017z"/>
		<path style="display:inline;fill:#F58025;" d="M125.72-521.416c0.3,0.192,0.996,0.492,1.727,0.492
			c1.355,0,1.775-0.863,1.763-1.511c-0.012-1.091-0.996-1.559-2.015-1.559h-0.587v-0.792h0.587c0.768,0,1.739-0.396,1.739-1.319
			c0-0.624-0.396-1.175-1.367-1.175c-0.624,0-1.224,0.276-1.559,0.516l-0.276-0.768c0.408-0.3,1.199-0.6,2.039-0.6
			c1.535,0,2.231,0.912,2.231,1.859c0,0.804-0.48,1.487-1.439,1.835v0.024c0.959,0.192,1.739,0.911,1.739,2.002
			c0,1.248-0.972,2.339-2.842,2.339c-0.875,0-1.643-0.276-2.027-0.528L125.72-521.416z"/>
	</g>
	<g style="display:none;clip-path:url(#SVGID_2_);">
		<defs>
			<rect id="SVGID_16_" x="-46.08" y="-640.806" width="612" height="792"/>
		</defs>
		<clipPath id="SVGID_17_" style="display:inline;">
			<use xlink:href="#SVGID_16_"  style="overflow:visible;"/>
		</clipPath>
		<path style="display:inline;clip-path:url(#SVGID_17_);fill:#FFFFFF;" d="M25.827,10.643c4.179,0,7.607-3.385,7.607-7.511
			c0-1.114-0.253-2.177-0.701-3.132H18.92c-0.448,0.955-0.7,2.018-0.7,3.132C18.22,7.258,21.648,10.643,25.827,10.643"/>
	</g>
	<polygon style="display:none;clip-path:url(#SVGID_2_);fill:#FFFFFF;" points="14.661,22.101 14.661,25.616 19.291,25.616 
		19.291,48.984 32.363,48.984 32.363,22.101 	"/>
	<g style="clip-path:url(#SVGID_2_);">
		<defs>
			<rect id="SVGID_18_" x="-46.08" y="-640.806" width="612" height="792"/>
		</defs>
		<clipPath id="SVGID_19_">
			<use xlink:href="#SVGID_18_"  style="overflow:visible;"/>
		</clipPath>
		<path style="clip-path:url(#SVGID_19_);fill:#009FC2;" d="M32.727,0c0.448,0.955,0.701,2.018,0.701,3.133
			c0,4.125-3.429,7.51-7.608,7.51c-4.178,0-7.607-3.385-7.607-7.51c0-1.115,0.253-2.178,0.701-3.133H0v48.983h19.284V25.616h-4.629
			v-3.516h17.702v26.883h17.901V0H32.727z"/>
		<path style="clip-path:url(#SVGID_19_);fill:#455560;" d="M64.386,1.674v1.264h-0.365c-0.859,0-0.859,0.233-0.859,0.992v8.011
			c0,0.722,0,0.92,0.859,0.92h0.365v1.264h-4.678V12.86h0.383c0.859,0,0.859-0.18,0.859-0.92V3.804c0-0.613,0-0.866-0.859-0.866
			h-0.383V1.674H64.386z"/>
		<path style="clip-path:url(#SVGID_19_);fill:#455560;" d="M68.553,5.427C68.663,5.842,68.7,6.239,68.7,6.69h0.035
			c0.22-0.361,0.915-1.462,2.669-1.462c0.622,0,2.065,0.163,2.632,1.606c0.201,0.505,0.201,1.516,0.201,1.803v3.447
			c0,0.884,0.036,0.884,1.042,0.884v1.155h-4.222v-1.155h0.311c0.731,0,0.731-0.143,0.731-1.046V8.945c0-0.812,0-2.093-1.462-2.093
			c-1.92,0-1.92,2.111-1.92,2.671v2.49c0,0.847,0,0.955,0.695,0.955h0.366v1.155h-4.222v-1.155h0.311
			c0.786,0,0.786-0.143,0.786-0.955V7.972c0-0.974-0.019-1.155-0.604-1.155c-0.219,0-0.475,0.019-0.566,0.019V5.698L68.553,5.427z"
			/>
		<path style="clip-path:url(#SVGID_19_);fill:#455560;" d="M82.423,8.007h-1.589V7.52c0-0.36,0-1.227-1.334-1.227
			c-0.584,0-1.389,0.198-1.389,0.992c0,0.614,0.548,0.92,1.06,1.137l1.06,0.434c1.371,0.577,2.65,1.263,2.65,2.833
			c0,0.992-0.547,1.804-1.297,2.22c-0.366,0.216-0.95,0.486-2.303,0.486c-1.59,0-2.413-0.289-3.162-0.596v-2.49h1.663v0.47
			c0,0.416,0,1.372,1.426,1.372c0.474,0,1.553-0.126,1.553-1.174c0-0.722-0.421-0.902-1.865-1.569
			c-1.48-0.686-2.705-1.245-2.705-2.761c0-1.137,0.823-2.508,3.345-2.508c1.498,0,2.523,0.433,2.887,0.576V8.007z"/>
		<path style="clip-path:url(#SVGID_19_);fill:#455560;" d="M86.67,2.864v2.562h2.212v1.462H86.67v4.403
			c0,0.485,0,1.406,0.896,1.406c0.438,0,0.731-0.126,1.425-0.432v1.442c-0.694,0.396-1.479,0.632-2.265,0.632
			c-2.194,0-2.194-1.714-2.194-2.454V6.889h-1.097V5.733c1.699-0.559,1.881-2.146,1.975-2.869H86.67z"/>
		<path style="clip-path:url(#SVGID_19_);fill:#455560;" d="M93.322,2.522c0,0.686-0.547,1.173-1.332,1.173
			c-0.75,0-1.317-0.451-1.317-1.155s0.584-1.155,1.335-1.155C92.774,1.385,93.322,1.836,93.322,2.522 M93.231,5.283v6.729
			c0,0.867,0,0.956,0.729,0.956h0.277v1.155h-4.186v-1.155h0.439c0.567,0,0.675-0.071,0.675-0.774V7.881
			c0-0.938,0.02-1.155-0.694-1.155h-0.53V5.572L93.231,5.283z"/>
		<path style="clip-path:url(#SVGID_19_);fill:#455560;" d="M103.887,5.283v5.448c0,0.759,0,1.931,1.406,1.931
			c1.628,0,1.956-1.497,1.956-2.526V7.465c0-0.647,0-0.846-0.493-0.846c-0.093,0-0.348,0-0.75,0.035V5.5l3.307-0.217v6.64
			c0,0.686,0.038,0.812,0.659,0.812c0.165,0,0.275,0,0.511-0.035v1.136l-3.052,0.289c-0.182-0.686-0.182-0.974-0.182-1.281h-0.037
			c-0.256,0.523-0.969,1.498-2.778,1.498c-2.704,0-2.704-2.328-2.704-3.158V7.776c0-0.531,0-0.903-0.495-0.903
			c-0.174,0-0.449-0.024-0.729-0.005V5.457L103.887,5.283z"/>
		<path style="clip-path:url(#SVGID_19_);fill:#455560;" d="M113.805,2.864v2.562h2.212v1.462h-2.212v4.403
			c0,0.485,0,1.406,0.896,1.406c0.439,0,0.732-0.126,1.427-0.432v1.442c-0.695,0.396-1.483,0.632-2.267,0.632
			c-2.194,0-2.194-1.714-2.194-2.454V6.889h-1.095V5.733c1.699-0.559,1.883-2.146,1.973-2.869H113.805z"/>
		<path style="clip-path:url(#SVGID_19_);fill:#455560;" d="M122.486,8.531c-0.017-0.524-0.054-2.076-1.662-2.076
			c-1.151,0-1.719,0.866-1.921,2.076H122.486z M118.849,9.956c-0.036,1.804,1.134,2.778,2.505,2.778
			c1.333,0,2.247-0.649,2.888-1.082c0.053-0.035,0.144-0.108,0.182-0.126v1.731c-0.457,0.324-1.609,1.137-3.619,1.137
			c-3.198,0-4.15-2.58-4.15-4.475c0-2.455,1.427-4.782,4.24-4.782c0.695,0,2.376,0.146,3.255,1.86
			c0.531,1.027,0.492,2.291,0.475,2.958H118.849z"/>
		<path style="clip-path:url(#SVGID_19_);fill:#455560;" d="M130.011,5.653h1.485c0.512-2.525,1.718-4.438,4.058-4.438
			c1.06,0,1.844,0.342,2.174,0.485l-0.493,1.752h-1.116c0.019-0.146,0.037-0.271,0.037-0.435c0-0.576-0.457-0.631-0.676-0.631
			c-1.224,0-1.626,1.733-1.974,3.266h1.856l-0.384,1.39h-1.764l-1.581,7.091c-0.403,2.021-1.408,4.871-4.132,4.871
			c-0.729,0-1.242-0.197-1.57-0.342l0.273-1.75h1.098c-0.038,0.416-0.055,0.865,0.492,0.865c0.531,0,0.859-0.505,1.006-0.775
			c0.275-0.577,0.529-1.299,0.878-3.048l1.526-6.912h-1.575L130.011,5.653z"/>
		<path style="clip-path:url(#SVGID_19_);fill:#455560;" d="M137.965,13.059c2.1,0,2.722-3.302,2.722-4.455
			c0-1.264-0.766-1.806-1.553-1.806c-1.865,0-2.741,2.671-2.741,4.35C136.393,12.157,136.923,13.059,137.965,13.059 M139.244,5.463
			c2.541,0,3.49,1.715,3.49,3.194c0,1.154-0.675,5.755-4.878,5.755c-3.345,0-3.492-2.958-3.492-3.445
			C134.364,9.036,135.515,5.463,139.244,5.463"/>
		<path style="clip-path:url(#SVGID_19_);fill:#455560;" d="M147.031,5.698L146.5,7.719l0.035,0.035
			c0.823-1.118,1.794-2.128,3.016-2.128c0.439,0,0.641,0.107,0.824,0.234l-0.622,2.146h-1.152c0.018-0.162,0-0.468-0.347-0.468
			c-0.438,0-0.841,0.468-0.913,0.541c-0.95,1.1-1.262,2.02-1.738,3.428l-0.674,2.616h-1.791l1.554-6.206
			c0.072-0.306,0.09-0.361,0.09-0.506c0-0.199-0.11-0.308-0.347-0.308c-0.184,0-0.292,0.019-0.749,0.073l0.346-1.119L147.031,5.698z
			"/>
		<path style="clip-path:url(#SVGID_19_);fill:#455560;" d="M64.258,19.439v1.262h-0.401c-0.823,0-0.841,0.289-0.841,0.831v2.923
			h5.483v-2.923c0-0.56-0.018-0.831-0.878-0.831h-0.365v-1.262h4.678v1.262h-0.401c-0.75,0-0.823,0.146-0.823,0.831v8.264
			c0,0.594,0.037,0.83,0.823,0.83h0.401v1.264h-4.678v-1.264h0.365c0.841,0,0.878-0.216,0.878-0.83v-3.717h-5.483v3.555
			c0,0.776,0.018,0.992,0.841,0.992h0.401v1.264H59.58v-1.264h0.457c0.749,0,0.786-0.197,0.786-0.83v-8.264
			c0-0.596-0.037-0.831-0.841-0.831H59.58v-1.262H64.258z"/>
		<path style="clip-path:url(#SVGID_19_);fill:#455560;" d="M78.183,26.296c-0.017-0.523-0.054-2.075-1.663-2.075
			c-1.151,0-1.717,0.866-1.918,2.075H78.183z M74.547,27.721C74.51,29.525,75.68,30.5,77.05,30.5c1.336,0,2.248-0.65,2.889-1.082
			c0.054-0.037,0.145-0.109,0.182-0.127v1.732c-0.456,0.325-1.608,1.137-3.619,1.137c-3.197,0-4.148-2.581-4.148-4.475
			c0-2.455,1.425-4.783,4.24-4.783c0.694,0,2.376,0.146,3.252,1.86c0.531,1.027,0.495,2.291,0.477,2.958H74.547z"/>
		<path style="clip-path:url(#SVGID_19_);fill:#455560;" d="M86.516,27.342c-2.246,0.632-3.343,0.92-3.343,2.075
			c0,0.56,0.402,1.263,1.371,1.263c0.457,0,0.986-0.163,1.424-0.541c0.548-0.486,0.548-1.299,0.548-1.75V27.342z M81.857,23.914
			c1.571-1.011,3.106-1.011,3.399-1.011c1.042,0,2.101,0.234,2.777,1.011c0.348,0.416,0.532,0.848,0.532,2.183v3.374
			c0,0.651,0.055,1.119,0.528,1.119c0.219,0,0.494-0.126,0.695-0.217v1.228c-0.786,0.36-1.278,0.504-1.807,0.504
			c-0.569,0-1.301-0.16-1.409-1.189c-0.294,0.342-1.042,1.189-2.667,1.189c-2.249,0-2.797-1.406-2.797-2.452
			c0-2.075,1.663-2.726,4.222-3.356l1.186-0.307c-0.036-0.812-0.072-1.84-1.571-1.84s-1.499,1.01-1.499,1.425v0.415h-1.589V23.914z"
			/>
		<path style="clip-path:url(#SVGID_19_);fill:#455560;" d="M90.282,18.948l3.326-0.307v11.101c0,0.991,0,0.991,1.006,0.991v1.156
			h-4.186v-1.156h0.311c0.767,0,0.767-0.126,0.767-0.991v-8.562c0-0.76,0-1.131-0.64-1.131c-0.163,0-0.42,0.155-0.584,0.174V18.948z
			"/>
		<path style="clip-path:url(#SVGID_19_);fill:#455560;" d="M98.322,20.63v2.562h2.212v1.461h-2.212v4.403
			c0,0.486,0,1.407,0.896,1.407c0.439,0,0.732-0.127,1.425-0.433v1.443c-0.693,0.396-1.479,0.63-2.267,0.63
			c-2.192,0-2.192-1.715-2.192-2.453v-4.998h-1.097V23.5c1.7-0.561,1.882-2.148,1.975-2.87H98.322z"/>
		<path style="clip-path:url(#SVGID_19_);fill:#455560;" d="M104.545,18.673v5.674h0.037c0.182-0.325,0.877-1.354,2.595-1.354
			c2.889,0,2.867,2.347,2.867,3.43v3.428c0,0.884,0.038,0.884,1.043,0.884v1.156h-4.221v-1.156h0.311c0.73,0,0.73-0.107,0.73-1.046
			v-3.014c0-0.739,0-2.074-1.443-2.074c-1.919,0-1.919,2.111-1.919,2.652v2.525c0,0.849,0,0.956,0.693,0.956h0.348v1.156h-4.202
			v-1.156h0.31c0.749,0,0.785-0.126,0.785-0.956V21.46c0-0.848,0-1.345-0.785-1.345h-0.459v-1.117L104.545,18.673z"/>
		<path style="clip-path:url(#SVGID_19_);fill:#455560;" d="M118.855,26.476h-1.718v-0.812c0-0.451-0.038-1.371-1.335-1.371
			c-1.79,0-2.286,1.895-2.286,3.014c0,1.931,0.878,3.138,2.505,3.138c1.335,0,2.431-0.793,2.797-1.046v1.696
			c-0.987,0.705-2.029,1.065-3.253,1.065c-3.453,0-4.112-2.941-4.112-4.402c0-3.663,2.466-4.854,4.476-4.854
			c0.166,0,1.647,0,2.926,0.776V26.476z"/>
		<path style="clip-path:url(#SVGID_19_);fill:#455560;" d="M125.069,27.342c-2.25,0.632-3.346,0.92-3.346,2.075
			c0,0.56,0.404,1.263,1.371,1.263c0.457,0,0.987-0.163,1.425-0.541c0.55-0.486,0.55-1.299,0.55-1.75V27.342z M120.407,23.914
			c1.573-1.011,3.106-1.011,3.401-1.011c1.042,0,2.1,0.234,2.777,1.011c0.347,0.416,0.53,0.848,0.53,2.183v3.374
			c0,0.651,0.056,1.119,0.529,1.119c0.222,0,0.494-0.126,0.694-0.217v1.228c-0.785,0.36-1.278,0.504-1.809,0.504
			c-0.566,0-1.297-0.16-1.407-1.189c-0.292,0.342-1.041,1.189-2.667,1.189c-2.248,0-2.795-1.406-2.795-2.452
			c0-2.075,1.661-2.726,4.219-3.356l1.19-0.307c-0.037-0.812-0.075-1.84-1.574-1.84s-1.499,1.01-1.499,1.425v0.415h-1.589V23.914z"
			/>
		<path style="clip-path:url(#SVGID_19_);fill:#455560;" d="M131.866,23.192c0.093,0.433,0.146,0.829,0.165,1.517h0.036
			c0.201-0.362,0.931-1.644,2.45-1.644c0.511,0,0.839,0.146,1.078,0.253v2.311h-1.444c0-0.416,0-0.812-0.476-0.812
			c-0.42,0-1.627,0.631-1.627,3.355v1.931c0,0.452,0.074,0.631,0.695,0.631h0.476v1.156h-4.223v-1.156h0.276
			c0.657,0,0.785-0.126,0.785-0.793v-4.62c0-0.811-0.201-0.811-1.17-0.756v-1.138L131.866,23.192z"/>
		<path style="clip-path:url(#SVGID_19_);fill:#455560;" d="M141.697,26.296c-0.018-0.523-0.053-2.075-1.662-2.075
			c-1.151,0-1.717,0.866-1.919,2.075H141.697z M138.06,27.721c-0.035,1.805,1.134,2.779,2.505,2.779c1.335,0,2.247-0.65,2.888-1.082
			c0.054-0.037,0.146-0.109,0.183-0.127v1.732c-0.458,0.325-1.61,1.137-3.62,1.137c-3.198,0-4.148-2.581-4.148-4.475
			c0-2.455,1.426-4.783,4.24-4.783c0.694,0,2.375,0.146,3.253,1.86c0.531,1.027,0.493,2.291,0.475,2.958H138.06z"/>
		<path style="clip-path:url(#SVGID_19_);fill:#455560;" d="M64.386,36.465v1.262h-0.365c-0.859,0-0.859,0.234-0.859,0.993v8.011
			c0,0.722,0,0.921,0.859,0.921h0.365v1.263h-4.678v-1.263h0.383c0.859,0,0.859-0.181,0.859-0.921v-8.138
			c0-0.613,0-0.866-0.859-0.866h-0.383v-1.262H64.386z"/>
		<path style="clip-path:url(#SVGID_19_);fill:#455560;" d="M68.424,40.217c0.091,0.324,0.128,0.578,0.147,1.227h0.036
			c0.274-0.414,0.987-1.425,2.668-1.425c1.901,0,2.413,1.191,2.577,1.624c0.621-1.065,1.626-1.624,2.87-1.624
			c0.895,0,1.992,0.378,2.394,1.209c0.201,0.415,0.401,0.83,0.401,1.984v3.754c0,0.702,0.092,0.794,0.768,0.794h0.255v1.154h-4.22
			V47.76h0.438c0.512,0,0.622-0.092,0.622-0.794v-3.338c0-0.76,0-2.004-1.389-2.004c-1.956,0-1.974,2.166-1.974,2.58v2.888
			c0,0.596,0.109,0.668,0.676,0.668h0.384v1.154h-4.185V47.76h0.292c0.731,0,0.768-0.127,0.768-0.83v-3.338
			c0-1.011-0.201-1.984-1.408-1.984c-1.955,0-1.955,2.146-1.955,2.615v2.707c0,0.613,0.018,0.83,0.621,0.83h0.439v1.154h-4.204
			V47.76h0.347c0.695,0,0.732-0.254,0.732-0.83v-4.564c0-0.523-0.055-0.776-0.567-0.776h-0.602v-1.118L68.424,40.217z"/>
		<path style="clip-path:url(#SVGID_19_);fill:#455560;" d="M83.576,44.71c0,1.984,0.95,2.941,2.138,2.941
			c2.028,0,2.028-2.618,2.028-3.032c0-1.84-0.694-2.995-2.028-2.995C84.232,41.624,83.576,43.158,83.576,44.71 M83.558,40.217
			c0.128,0.433,0.145,0.723,0.145,1.246h0.037c0.292-0.506,0.95-1.534,2.649-1.534c2.431,0,3.583,2.11,3.583,4.401
			c0,2.545-1.261,4.854-3.912,4.854c-1.316,0-1.918-0.596-2.338-0.993v3.003c0,0.739,0.036,0.848,0.767,0.848h0.421v1.155h-4.331
			v-1.155h0.273c0.804,0,0.804-0.126,0.804-0.92v-8.434c0-1.046,0-1.155-0.511-1.155c-0.111,0-0.531,0.036-0.639,0.036v-1.118
			L83.558,40.217z"/>
		<path style="clip-path:url(#SVGID_19_);fill:#455560;" d="M93.279,40.217c0.09,0.433,0.146,0.83,0.164,1.516h0.036
			c0.202-0.361,0.932-1.642,2.448-1.642c0.514,0,0.843,0.145,1.079,0.253v2.311h-1.443c0-0.416,0-0.812-0.476-0.812
			c-0.419,0-1.625,0.632-1.625,3.354v1.932c0,0.451,0.073,0.632,0.695,0.632h0.474v1.154H90.41V47.76h0.273
			c0.658,0,0.785-0.127,0.785-0.794v-4.619c0-0.813-0.199-0.813-1.169-0.758v-1.138L93.279,40.217z"/>
		<path style="clip-path:url(#SVGID_19_);fill:#455560;" d="M99.238,44.602c0,0.938,0.309,3.157,2.282,3.157
			c2.231,0,2.231-2.797,2.231-3.301c0-0.472,0-3.086-2.231-3.086C99.729,41.372,99.238,43.23,99.238,44.602 M97.115,44.691
			c0-2.146,1.061-4.763,4.405-4.763c2.815,0,4.387,1.714,4.387,4.438c0,2.238-1.06,4.817-4.551,4.817
			C98.358,49.184,97.115,47.128,97.115,44.691"/>
		<path style="clip-path:url(#SVGID_19_);fill:#455560;" d="M105.559,40.217h4.35v1.154c-0.585,0-0.876,0-0.876,0.325
			c0,0.127,0.091,0.397,0.146,0.523l1.626,4.15l1.571-4.043c0.073-0.179,0.147-0.432,0.147-0.595c0-0.343-0.346-0.343-0.842-0.361
			v-1.154h3.711v1.154c-0.603,0-0.731,0.037-1.17,1.065l-2.852,6.64h-1.643l-2.869-6.693c-0.367-0.83-0.568-0.975-1.299-1.012
			V40.217z"/>
		<path style="clip-path:url(#SVGID_19_);fill:#455560;" d="M120.946,43.32c-0.018-0.522-0.055-2.075-1.663-2.075
			c-1.151,0-1.717,0.867-1.918,2.075H120.946z M117.31,44.745c-0.037,1.806,1.132,2.78,2.503,2.78c1.334,0,2.249-0.65,2.889-1.083
			c0.054-0.036,0.145-0.108,0.182-0.125v1.73c-0.456,0.325-1.609,1.137-3.619,1.137c-3.2,0-4.149-2.58-4.149-4.475
			c0-2.454,1.426-4.781,4.24-4.781c0.695,0,2.377,0.145,3.254,1.858c0.531,1.028,0.493,2.292,0.475,2.958H117.31z"/>
		<path style="clip-path:url(#SVGID_19_);fill:#455560;" d="M126.685,40.217c0.092,0.324,0.128,0.578,0.146,1.227h0.036
			c0.276-0.414,0.989-1.425,2.669-1.425c1.901,0,2.414,1.191,2.577,1.624c0.622-1.065,1.628-1.624,2.87-1.624
			c0.896,0,1.992,0.378,2.393,1.209c0.202,0.415,0.403,0.83,0.403,1.984v3.754c0,0.702,0.091,0.794,0.767,0.794h0.257v1.154h-4.222
			V47.76h0.439c0.511,0,0.621-0.092,0.621-0.794v-3.338c0-0.76,0-2.004-1.389-2.004c-1.955,0-1.975,2.166-1.975,2.58v2.888
			c0,0.596,0.111,0.668,0.677,0.668h0.384v1.154h-4.184V47.76h0.29c0.732,0,0.768-0.127,0.768-0.83v-3.338
			c0-1.011-0.2-1.984-1.407-1.984c-1.955,0-1.955,2.146-1.955,2.615v2.707c0,0.613,0.017,0.83,0.621,0.83h0.439v1.154h-4.205V47.76
			h0.349c0.694,0,0.731-0.254,0.731-0.83v-4.564c0-0.523-0.055-0.776-0.567-0.776h-0.604v-1.118L126.685,40.217z"/>
		<path style="clip-path:url(#SVGID_19_);fill:#455560;" d="M144.595,43.32c-0.018-0.522-0.054-2.075-1.664-2.075
			c-1.149,0-1.716,0.867-1.919,2.075H144.595z M140.958,44.745c-0.037,1.806,1.134,2.78,2.505,2.78c1.333,0,2.248-0.65,2.887-1.083
			c0.054-0.036,0.147-0.108,0.183-0.125v1.73c-0.457,0.325-1.609,1.137-3.618,1.137c-3.2,0-4.149-2.58-4.149-4.475
			c0-2.454,1.425-4.781,4.24-4.781c0.693,0,2.375,0.145,3.252,1.858c0.531,1.028,0.494,2.292,0.476,2.958H140.958z"/>
		<path style="clip-path:url(#SVGID_19_);fill:#455560;" d="M150.35,40.217c0.11,0.416,0.147,0.812,0.147,1.264h0.038
			c0.219-0.36,0.912-1.462,2.667-1.462c0.621,0,2.066,0.162,2.632,1.605c0.202,0.506,0.202,1.517,0.202,1.806v3.445
			c0,0.885,0.035,0.885,1.041,0.885v1.154h-4.224V47.76h0.312c0.732,0,0.732-0.145,0.732-1.047v-2.978c0-0.812,0-2.093-1.462-2.093
			c-1.92,0-1.92,2.11-1.92,2.671v2.489c0,0.849,0,0.957,0.695,0.957h0.365v1.154h-4.222V47.76h0.312
			c0.785,0,0.785-0.145,0.785-0.957v-4.041c0-0.976-0.017-1.154-0.603-1.154c-0.219,0-0.474,0.017-0.566,0.017v-1.137L150.35,40.217
			z"/>
		<path style="clip-path:url(#SVGID_19_);fill:#455560;" d="M160.458,37.654v2.562h2.21v1.461h-2.21v4.402
			c0,0.487,0,1.408,0.893,1.408c0.441,0,0.732-0.126,1.427-0.432v1.44c-0.695,0.398-1.481,0.633-2.266,0.633
			c-2.193,0-2.193-1.714-2.193-2.453v-4.999h-1.096v-1.153c1.699-0.56,1.882-2.149,1.974-2.87H160.458z"/>
		<path style="clip-path:url(#SVGID_19_);fill:#455560;" d="M97.763,2.864v2.562h3.723v1.462h-3.723v4.403
			c0,0.485,0,1.406,0.896,1.406c0.439,0,0.731-0.126,1.425-0.432v1.442c-0.694,0.396-1.481,0.632-2.266,0.632
			c-2.193,0-2.193-1.714-2.193-2.454V6.889h-1.097V5.733c1.7-0.559,1.882-2.146,1.974-2.869H97.763z"/>
	</g>
	
		<line style="display:none;clip-path:url(#SVGID_2_);fill:none;stroke:#939598;stroke-width:0.25;" x1="-4.574" y1="-17.161" x2="464.93" y2="-17.161"/>
</g>
</svg>
